<mxfile host="Electron" modified="2023-08-09T02:53:12.438Z" agent="Mozilla/5.0 (Windows NT 10.0; Win64; x64) AppleWebKit/537.36 (KHTML, like Gecko) draw.io/21.6.5 Chrome/114.0.5735.243 Electron/25.3.1 Safari/537.36" etag="kJze1lwhRtBmi8na1Wze" version="21.6.5" type="device">
  <diagram name="PÃ¡gina-1" id="Y8KacUkbgVy7eceK-Y6i">
    <mxGraphModel dx="880" dy="532" grid="1" gridSize="10" guides="1" tooltips="1" connect="1" arrows="1" fold="1" page="1" pageScale="1" pageWidth="827" pageHeight="1169" math="0" shadow="0">
      <root>
        <mxCell id="0" />
        <mxCell id="1" parent="0" />
        <mxCell id="BxXpuWLMn314QpGA2FgX-1" value="Cliente" style="rounded=0;whiteSpace=wrap;html=1;" parent="1" vertex="1">
          <mxGeometry x="210" y="175" width="60" height="30" as="geometry" />
        </mxCell>
        <mxCell id="BxXpuWLMn314QpGA2FgX-2" value="Producto" style="rounded=0;whiteSpace=wrap;html=1;" parent="1" vertex="1">
          <mxGeometry x="580" y="175" width="70" height="30" as="geometry" />
        </mxCell>
        <mxCell id="BxXpuWLMn314QpGA2FgX-3" value="Facturar&lt;br&gt;N:M" style="rhombus;whiteSpace=wrap;html=1;" parent="1" vertex="1">
          <mxGeometry x="380" y="150" width="80" height="80" as="geometry" />
        </mxCell>
        <mxCell id="BxXpuWLMn314QpGA2FgX-4" value="val_unit" style="ellipse;whiteSpace=wrap;html=1;" parent="1" vertex="1">
          <mxGeometry x="620" y="250" width="60" height="30" as="geometry" />
        </mxCell>
        <mxCell id="BxXpuWLMn314QpGA2FgX-5" value="descripcion" style="ellipse;whiteSpace=wrap;html=1;" parent="1" vertex="1">
          <mxGeometry x="690" y="205" width="70" height="40" as="geometry" />
        </mxCell>
        <mxCell id="BxXpuWLMn314QpGA2FgX-6" value="categoria" style="ellipse;whiteSpace=wrap;html=1;" parent="1" vertex="1">
          <mxGeometry x="695" y="130" width="60" height="30" as="geometry" />
        </mxCell>
        <mxCell id="BxXpuWLMn314QpGA2FgX-7" value="&lt;u&gt;cod_prod&lt;/u&gt;" style="ellipse;whiteSpace=wrap;html=1;fillColor=#60a917;fontColor=#ffffff;strokeColor=#2D7600;" parent="1" vertex="1">
          <mxGeometry x="610" y="100" width="70" height="30" as="geometry" />
        </mxCell>
        <mxCell id="BxXpuWLMn314QpGA2FgX-8" value="telef_cliente" style="ellipse;whiteSpace=wrap;html=1;" parent="1" vertex="1">
          <mxGeometry x="75" y="220" width="80" height="30" as="geometry" />
        </mxCell>
        <mxCell id="BxXpuWLMn314QpGA2FgX-9" value="ciudad_cliente" style="ellipse;whiteSpace=wrap;html=1;" parent="1" vertex="1">
          <mxGeometry x="170" y="100" width="90" height="30" as="geometry" />
        </mxCell>
        <mxCell id="BxXpuWLMn314QpGA2FgX-10" value="dir_cliente" style="ellipse;whiteSpace=wrap;html=1;" parent="1" vertex="1">
          <mxGeometry x="170" y="250" width="80" height="30" as="geometry" />
        </mxCell>
        <mxCell id="BxXpuWLMn314QpGA2FgX-11" value="nom_cliente" style="ellipse;whiteSpace=wrap;html=1;" parent="1" vertex="1">
          <mxGeometry x="75" y="175" width="80" height="30" as="geometry" />
        </mxCell>
        <mxCell id="BxXpuWLMn314QpGA2FgX-12" value="&lt;u&gt;rif_cliente&lt;/u&gt;" style="ellipse;whiteSpace=wrap;html=1;fillColor=#60a917;fontColor=#ffffff;strokeColor=#2D7600;" parent="1" vertex="1">
          <mxGeometry x="80" y="130" width="70" height="30" as="geometry" />
        </mxCell>
        <mxCell id="BxXpuWLMn314QpGA2FgX-15" value="cant_prod" style="ellipse;whiteSpace=wrap;html=1;" parent="1" vertex="1">
          <mxGeometry x="300" y="275" width="70" height="30" as="geometry" />
        </mxCell>
        <mxCell id="BxXpuWLMn314QpGA2FgX-16" value="fecha_fac" style="ellipse;whiteSpace=wrap;html=1;" parent="1" vertex="1">
          <mxGeometry x="470" y="275" width="70" height="30" as="geometry" />
        </mxCell>
        <mxCell id="BxXpuWLMn314QpGA2FgX-17" value="&lt;u&gt;num_fac&lt;/u&gt;" style="ellipse;whiteSpace=wrap;html=1;fillColor=#60a917;fontColor=#ffffff;strokeColor=#2D7600;" parent="1" vertex="1">
          <mxGeometry x="330" y="90" width="60" height="30" as="geometry" />
        </mxCell>
        <mxCell id="BxXpuWLMn314QpGA2FgX-21" style="edgeStyle=orthogonalEdgeStyle;rounded=0;orthogonalLoop=1;jettySize=auto;html=1;exitX=0.5;exitY=1;exitDx=0;exitDy=0;" parent="1" source="BxXpuWLMn314QpGA2FgX-8" target="BxXpuWLMn314QpGA2FgX-8" edge="1">
          <mxGeometry relative="1" as="geometry" />
        </mxCell>
        <mxCell id="BxXpuWLMn314QpGA2FgX-23" value="" style="endArrow=none;html=1;rounded=0;entryX=0;entryY=0.5;entryDx=0;entryDy=0;" parent="1" source="BxXpuWLMn314QpGA2FgX-3" target="BxXpuWLMn314QpGA2FgX-2" edge="1">
          <mxGeometry width="50" height="50" relative="1" as="geometry">
            <mxPoint x="390" y="310" as="sourcePoint" />
            <mxPoint x="440" y="260" as="targetPoint" />
          </mxGeometry>
        </mxCell>
        <mxCell id="BxXpuWLMn314QpGA2FgX-24" value="" style="endArrow=none;html=1;rounded=0;exitX=1;exitY=0.5;exitDx=0;exitDy=0;entryX=0;entryY=0.5;entryDx=0;entryDy=0;" parent="1" source="BxXpuWLMn314QpGA2FgX-1" target="BxXpuWLMn314QpGA2FgX-3" edge="1">
          <mxGeometry width="50" height="50" relative="1" as="geometry">
            <mxPoint x="390" y="310" as="sourcePoint" />
            <mxPoint x="440" y="260" as="targetPoint" />
          </mxGeometry>
        </mxCell>
        <mxCell id="BxXpuWLMn314QpGA2FgX-26" value="" style="endArrow=none;html=1;rounded=0;entryX=0;entryY=0.5;entryDx=0;entryDy=0;exitX=1;exitY=1;exitDx=0;exitDy=0;" parent="1" source="BxXpuWLMn314QpGA2FgX-2" target="BxXpuWLMn314QpGA2FgX-5" edge="1">
          <mxGeometry width="50" height="50" relative="1" as="geometry">
            <mxPoint x="390" y="310" as="sourcePoint" />
            <mxPoint x="440" y="260" as="targetPoint" />
          </mxGeometry>
        </mxCell>
        <mxCell id="BxXpuWLMn314QpGA2FgX-27" value="" style="endArrow=none;html=1;rounded=0;entryX=0;entryY=0.5;entryDx=0;entryDy=0;exitX=1;exitY=0;exitDx=0;exitDy=0;" parent="1" source="BxXpuWLMn314QpGA2FgX-2" target="BxXpuWLMn314QpGA2FgX-6" edge="1">
          <mxGeometry width="50" height="50" relative="1" as="geometry">
            <mxPoint x="390" y="310" as="sourcePoint" />
            <mxPoint x="440" y="260" as="targetPoint" />
          </mxGeometry>
        </mxCell>
        <mxCell id="BxXpuWLMn314QpGA2FgX-28" value="" style="endArrow=none;html=1;rounded=0;entryX=0.5;entryY=1;entryDx=0;entryDy=0;exitX=0.5;exitY=0;exitDx=0;exitDy=0;" parent="1" source="BxXpuWLMn314QpGA2FgX-2" target="BxXpuWLMn314QpGA2FgX-7" edge="1">
          <mxGeometry width="50" height="50" relative="1" as="geometry">
            <mxPoint x="390" y="310" as="sourcePoint" />
            <mxPoint x="440" y="260" as="targetPoint" />
          </mxGeometry>
        </mxCell>
        <mxCell id="BxXpuWLMn314QpGA2FgX-29" value="" style="endArrow=none;html=1;rounded=0;entryX=1;entryY=1;entryDx=0;entryDy=0;exitX=0.5;exitY=0;exitDx=0;exitDy=0;" parent="1" source="BxXpuWLMn314QpGA2FgX-16" target="BxXpuWLMn314QpGA2FgX-3" edge="1">
          <mxGeometry width="50" height="50" relative="1" as="geometry">
            <mxPoint x="390" y="310" as="sourcePoint" />
            <mxPoint x="440" y="260" as="targetPoint" />
          </mxGeometry>
        </mxCell>
        <mxCell id="BxXpuWLMn314QpGA2FgX-30" value="" style="endArrow=none;html=1;rounded=0;entryX=0.5;entryY=1;entryDx=0;entryDy=0;exitX=1;exitY=0;exitDx=0;exitDy=0;" parent="1" source="BxXpuWLMn314QpGA2FgX-3" target="BxXpuWLMn314QpGA2FgX-51" edge="1">
          <mxGeometry width="50" height="50" relative="1" as="geometry">
            <mxPoint x="390" y="310" as="sourcePoint" />
            <mxPoint x="490" y="120" as="targetPoint" />
          </mxGeometry>
        </mxCell>
        <mxCell id="BxXpuWLMn314QpGA2FgX-31" value="" style="endArrow=none;html=1;rounded=0;exitX=0;exitY=0;exitDx=0;exitDy=0;" parent="1" source="BxXpuWLMn314QpGA2FgX-3" target="BxXpuWLMn314QpGA2FgX-17" edge="1">
          <mxGeometry width="50" height="50" relative="1" as="geometry">
            <mxPoint x="390" y="310" as="sourcePoint" />
            <mxPoint x="440" y="260" as="targetPoint" />
          </mxGeometry>
        </mxCell>
        <mxCell id="BxXpuWLMn314QpGA2FgX-32" value="" style="endArrow=none;html=1;rounded=0;entryX=0.5;entryY=1;entryDx=0;entryDy=0;exitX=0.5;exitY=0;exitDx=0;exitDy=0;" parent="1" source="BxXpuWLMn314QpGA2FgX-54" target="BxXpuWLMn314QpGA2FgX-3" edge="1">
          <mxGeometry width="50" height="50" relative="1" as="geometry">
            <mxPoint x="420" y="270" as="sourcePoint" />
            <mxPoint x="440" y="260" as="targetPoint" />
          </mxGeometry>
        </mxCell>
        <mxCell id="BxXpuWLMn314QpGA2FgX-33" value="" style="endArrow=none;html=1;rounded=0;entryX=0;entryY=1;entryDx=0;entryDy=0;exitX=0.5;exitY=0;exitDx=0;exitDy=0;" parent="1" source="BxXpuWLMn314QpGA2FgX-15" target="BxXpuWLMn314QpGA2FgX-3" edge="1">
          <mxGeometry width="50" height="50" relative="1" as="geometry">
            <mxPoint x="390" y="310" as="sourcePoint" />
            <mxPoint x="440" y="260" as="targetPoint" />
          </mxGeometry>
        </mxCell>
        <mxCell id="BxXpuWLMn314QpGA2FgX-34" value="" style="endArrow=none;html=1;rounded=0;exitX=0.5;exitY=0;exitDx=0;exitDy=0;entryX=0.5;entryY=1;entryDx=0;entryDy=0;" parent="1" source="BxXpuWLMn314QpGA2FgX-10" target="BxXpuWLMn314QpGA2FgX-1" edge="1">
          <mxGeometry width="50" height="50" relative="1" as="geometry">
            <mxPoint x="390" y="310" as="sourcePoint" />
            <mxPoint x="440" y="260" as="targetPoint" />
          </mxGeometry>
        </mxCell>
        <mxCell id="BxXpuWLMn314QpGA2FgX-35" value="" style="endArrow=none;html=1;rounded=0;entryX=1;entryY=0.5;entryDx=0;entryDy=0;exitX=0;exitY=1;exitDx=0;exitDy=0;" parent="1" source="BxXpuWLMn314QpGA2FgX-1" target="BxXpuWLMn314QpGA2FgX-8" edge="1">
          <mxGeometry width="50" height="50" relative="1" as="geometry">
            <mxPoint x="390" y="310" as="sourcePoint" />
            <mxPoint x="440" y="260" as="targetPoint" />
          </mxGeometry>
        </mxCell>
        <mxCell id="BxXpuWLMn314QpGA2FgX-36" value="" style="endArrow=none;html=1;rounded=0;entryX=1;entryY=0.5;entryDx=0;entryDy=0;exitX=0;exitY=0.5;exitDx=0;exitDy=0;" parent="1" source="BxXpuWLMn314QpGA2FgX-1" target="BxXpuWLMn314QpGA2FgX-11" edge="1">
          <mxGeometry width="50" height="50" relative="1" as="geometry">
            <mxPoint x="390" y="310" as="sourcePoint" />
            <mxPoint x="440" y="260" as="targetPoint" />
          </mxGeometry>
        </mxCell>
        <mxCell id="BxXpuWLMn314QpGA2FgX-37" value="" style="endArrow=none;html=1;rounded=0;entryX=1;entryY=0.5;entryDx=0;entryDy=0;exitX=0;exitY=0;exitDx=0;exitDy=0;" parent="1" source="BxXpuWLMn314QpGA2FgX-1" target="BxXpuWLMn314QpGA2FgX-12" edge="1">
          <mxGeometry width="50" height="50" relative="1" as="geometry">
            <mxPoint x="390" y="310" as="sourcePoint" />
            <mxPoint x="440" y="260" as="targetPoint" />
          </mxGeometry>
        </mxCell>
        <mxCell id="BxXpuWLMn314QpGA2FgX-38" value="" style="endArrow=none;html=1;rounded=0;exitX=0.5;exitY=1;exitDx=0;exitDy=0;entryX=0.5;entryY=0;entryDx=0;entryDy=0;" parent="1" source="BxXpuWLMn314QpGA2FgX-9" target="BxXpuWLMn314QpGA2FgX-1" edge="1">
          <mxGeometry width="50" height="50" relative="1" as="geometry">
            <mxPoint x="390" y="310" as="sourcePoint" />
            <mxPoint x="440" y="260" as="targetPoint" />
          </mxGeometry>
        </mxCell>
        <mxCell id="BxXpuWLMn314QpGA2FgX-39" value="" style="endArrow=none;html=1;rounded=0;entryX=0.5;entryY=0;entryDx=0;entryDy=0;exitX=0.5;exitY=1;exitDx=0;exitDy=0;" parent="1" source="BxXpuWLMn314QpGA2FgX-2" target="BxXpuWLMn314QpGA2FgX-4" edge="1">
          <mxGeometry width="50" height="50" relative="1" as="geometry">
            <mxPoint x="390" y="310" as="sourcePoint" />
            <mxPoint x="440" y="260" as="targetPoint" />
          </mxGeometry>
        </mxCell>
        <mxCell id="BxXpuWLMn314QpGA2FgX-40" value="1" style="text;html=1;strokeColor=none;fillColor=none;align=center;verticalAlign=middle;whiteSpace=wrap;rounded=0;" parent="1" vertex="1">
          <mxGeometry x="270" y="175" width="20" height="10" as="geometry" />
        </mxCell>
        <mxCell id="BxXpuWLMn314QpGA2FgX-41" value="N" style="text;html=1;strokeColor=none;fillColor=none;align=center;verticalAlign=middle;whiteSpace=wrap;rounded=0;" parent="1" vertex="1">
          <mxGeometry x="560" y="175" width="20" height="10" as="geometry" />
        </mxCell>
        <mxCell id="BxXpuWLMn314QpGA2FgX-42" value="1" style="text;html=1;strokeColor=none;fillColor=none;align=center;verticalAlign=middle;whiteSpace=wrap;rounded=0;" parent="1" vertex="1">
          <mxGeometry x="560" y="195" width="20" height="10" as="geometry" />
        </mxCell>
        <mxCell id="BxXpuWLMn314QpGA2FgX-43" value="M" style="text;html=1;strokeColor=none;fillColor=none;align=center;verticalAlign=middle;whiteSpace=wrap;rounded=0;" parent="1" vertex="1">
          <mxGeometry x="270" y="195" width="20" height="10" as="geometry" />
        </mxCell>
        <mxCell id="BxXpuWLMn314QpGA2FgX-47" value="" style="shape=or;whiteSpace=wrap;html=1;fillColor=#60a917;fontColor=#ffffff;strokeColor=#2D7600;" parent="1" vertex="1">
          <mxGeometry x="490" y="90" width="40" height="30" as="geometry" />
        </mxCell>
        <mxCell id="BxXpuWLMn314QpGA2FgX-48" value="" style="shape=or;whiteSpace=wrap;html=1;rotation=-180;" parent="1" vertex="1">
          <mxGeometry x="450" y="90" width="40" height="30" as="geometry" />
        </mxCell>
        <mxCell id="BxXpuWLMn314QpGA2FgX-51" value="rif_cliente_fk" style="text;html=1;strokeColor=none;fillColor=none;align=center;verticalAlign=middle;whiteSpace=wrap;rounded=0;" parent="1" vertex="1">
          <mxGeometry x="450" y="90" width="80" height="30" as="geometry" />
        </mxCell>
        <mxCell id="BxXpuWLMn314QpGA2FgX-52" value="" style="shape=or;whiteSpace=wrap;html=1;fillColor=#60a917;fontColor=#ffffff;strokeColor=#2D7600;" parent="1" vertex="1">
          <mxGeometry x="420" y="275" width="40" height="30" as="geometry" />
        </mxCell>
        <mxCell id="BxXpuWLMn314QpGA2FgX-53" value="" style="shape=or;whiteSpace=wrap;html=1;rotation=-180;" parent="1" vertex="1">
          <mxGeometry x="380" y="275" width="40" height="30" as="geometry" />
        </mxCell>
        <mxCell id="BxXpuWLMn314QpGA2FgX-54" value="cod_prod_fk" style="text;html=1;strokeColor=none;fillColor=none;align=center;verticalAlign=middle;whiteSpace=wrap;rounded=0;" parent="1" vertex="1">
          <mxGeometry x="380" y="275" width="80" height="30" as="geometry" />
        </mxCell>
      </root>
    </mxGraphModel>
  </diagram>
</mxfile>
